<svg width="13" height="14" viewBox="0 0 13 14" fill="none" xmlns="http://www.w3.org/2000/svg">
<g clip-path="url(#clip0_3_3286)">
<path d="M8.5957 7.12305C8.5957 6.57617 8.39974 6.10677 8.00781 5.71484C7.61589 5.32292 7.14648 5.12695 6.59961 5.12695C6.04362 5.12695 5.57194 5.32292 5.18457 5.71484C4.7972 6.10677 4.60352 6.57617 4.60352 7.12305C4.60352 7.67904 4.7972 8.15072 5.18457 8.53809C5.57194 8.92546 6.04362 9.11914 6.59961 9.11914C7.14648 9.11914 7.61589 8.92546 8.00781 8.53809C8.39974 8.15072 8.5957 7.67904 8.5957 7.12305ZM9.67578 7.12305C9.67578 7.55143 9.59375 7.95247 9.42969 8.32617C9.27474 8.69987 9.05827 9.02572 8.78027 9.30371C8.50228 9.58171 8.17643 9.80273 7.80273 9.9668C7.42904 10.1217 7.02799 10.1992 6.59961 10.1992C6.17122 10.1992 5.77018 10.1217 5.39648 9.9668C5.02279 9.80273 4.69694 9.58171 4.41895 9.30371C4.14095 9.02572 3.91992 8.69987 3.75586 8.32617C3.60091 7.95247 3.52344 7.55143 3.52344 7.12305C3.52344 6.69466 3.60091 6.29362 3.75586 5.91992C3.91992 5.54622 4.14095 5.22038 4.41895 4.94238C4.69694 4.66439 5.02279 4.44792 5.39648 4.29297C5.77018 4.12891 6.17122 4.04688 6.59961 4.04688C7.02799 4.04688 7.42904 4.12891 7.80273 4.29297C8.17643 4.44792 8.50228 4.66439 8.78027 4.94238C9.05827 5.22038 9.27474 5.54622 9.42969 5.91992C9.59375 6.29362 9.67578 6.69466 9.67578 7.12305ZM10.5234 3.92383C10.5234 4.12435 10.4528 4.29297 10.3115 4.42969C10.1702 4.56641 9.99935 4.63477 9.79883 4.63477C9.59831 4.63477 9.42969 4.56641 9.29297 4.42969C9.15625 4.29297 9.08789 4.12435 9.08789 3.92383C9.08789 3.72331 9.15625 3.55241 9.29297 3.41113C9.42969 3.26986 9.59831 3.19922 9.79883 3.19922C9.99935 3.19922 10.1702 3.26986 10.3115 3.41113C10.4528 3.55241 10.5234 3.72331 10.5234 3.92383ZM6.59961 2.20117C6.38086 2.20117 6.11198 2.20117 5.79297 2.20117C5.46484 2.19206 5.13216 2.19434 4.79492 2.20801C4.45768 2.22168 4.13411 2.24219 3.82422 2.26953C3.51432 2.30599 3.25911 2.36523 3.05859 2.44727C2.92188 2.50195 2.79883 2.56348 2.68945 2.63184C2.58008 2.7002 2.47526 2.78906 2.375 2.89844C2.26562 3.00781 2.17676 3.11491 2.1084 3.21973C2.04004 3.32454 1.97852 3.44531 1.92383 3.58203C1.8418 3.78255 1.78255 4.03776 1.74609 4.34766C1.70964 4.65755 1.68685 4.98112 1.67773 5.31836C1.66862 5.6556 1.66406 5.98828 1.66406 6.31641C1.67318 6.63542 1.67773 6.9043 1.67773 7.12305C1.67773 7.3418 1.67318 7.61068 1.66406 7.92969C1.66406 8.25781 1.66862 8.59049 1.67773 8.92773C1.68685 9.26497 1.70964 9.58854 1.74609 9.89844C1.78255 10.2083 1.8418 10.4635 1.92383 10.6641C1.97852 10.8008 2.04004 10.9238 2.1084 11.0332C2.17676 11.1426 2.26562 11.2474 2.375 11.3477C2.47526 11.457 2.58008 11.5459 2.68945 11.6143C2.79883 11.6826 2.92188 11.7441 3.05859 11.7988C3.25911 11.8809 3.51432 11.9401 3.82422 11.9766C4.13411 12.013 4.45768 12.0358 4.79492 12.0449C5.13216 12.054 5.46484 12.0586 5.79297 12.0586C6.11198 12.0495 6.38086 12.0449 6.59961 12.0449C6.81836 12.0449 7.08724 12.0495 7.40625 12.0586C7.73438 12.0586 8.06706 12.054 8.4043 12.0449C8.74154 12.0358 9.0651 12.013 9.375 11.9766C9.6849 11.9401 9.9401 11.8809 10.1406 11.7988C10.2773 11.7441 10.3981 11.6826 10.5029 11.6143C10.6077 11.5459 10.7148 11.457 10.8242 11.3477C10.9336 11.2474 11.0225 11.1426 11.0908 11.0332C11.1592 10.9238 11.2207 10.8008 11.2754 10.6641C11.3574 10.4635 11.4167 10.2083 11.4531 9.89844C11.4805 9.58854 11.501 9.26497 11.5146 8.92773C11.5283 8.59049 11.5306 8.25781 11.5215 7.92969C11.5215 7.61068 11.5215 7.3418 11.5215 7.12305C11.5215 6.9043 11.5215 6.63542 11.5215 6.31641C11.5306 5.98828 11.5283 5.6556 11.5146 5.31836C11.501 4.98112 11.4805 4.65755 11.4531 4.34766C11.4167 4.03776 11.3574 3.78255 11.2754 3.58203C11.2207 3.44531 11.1592 3.32454 11.0908 3.21973C11.0225 3.11491 10.9336 3.00781 10.8242 2.89844C10.7148 2.78906 10.6077 2.7002 10.5029 2.63184C10.3981 2.56348 10.2773 2.50195 10.1406 2.44727C9.9401 2.36523 9.6849 2.30599 9.375 2.26953C9.0651 2.24219 8.74154 2.22168 8.4043 2.20801C8.06706 2.19434 7.73438 2.19206 7.40625 2.20117C7.08724 2.20117 6.81836 2.20117 6.59961 2.20117ZM12.6016 7.12305C12.6016 7.54232 12.5993 7.95703 12.5947 8.36719C12.5902 8.77734 12.5788 9.1875 12.5605 9.59766C12.5332 10.0807 12.4535 10.5342 12.3213 10.958C12.1891 11.3818 11.9453 11.7669 11.5898 12.1133C11.2344 12.4688 10.847 12.7148 10.4277 12.8516C10.0085 12.9883 9.55729 13.0658 9.07422 13.084C8.66406 13.1113 8.25163 13.125 7.83691 13.125C7.4222 13.125 7.00977 13.125 6.59961 13.125C6.18034 13.125 5.76562 13.125 5.35547 13.125C4.94531 13.125 4.53516 13.1113 4.125 13.084C3.64193 13.0658 3.18848 12.9883 2.76465 12.8516C2.34082 12.7148 1.95573 12.4688 1.60938 12.1133C1.25391 11.7669 1.00781 11.3818 0.871094 10.958C0.734375 10.5342 0.656901 10.0807 0.638672 9.59766C0.611328 9.1875 0.597656 8.77734 0.597656 8.36719C0.597656 7.95703 0.597656 7.54232 0.597656 7.12305C0.597656 6.71289 0.597656 6.30046 0.597656 5.88574C0.597656 5.47103 0.611328 5.05859 0.638672 4.64844C0.656901 4.16536 0.734375 3.71419 0.871094 3.29492C1.00781 2.87565 1.25391 2.48828 1.60938 2.13281C1.95573 1.77734 2.34082 1.53353 2.76465 1.40137C3.18848 1.26921 3.64193 1.18945 4.125 1.16211C4.53516 1.14388 4.94531 1.13249 5.35547 1.12793C5.76562 1.12337 6.18034 1.12109 6.59961 1.12109C7.00977 1.12109 7.4222 1.12337 7.83691 1.12793C8.25163 1.13249 8.66406 1.14388 9.07422 1.16211C9.55729 1.18945 10.0085 1.26921 10.4277 1.40137C10.847 1.53353 11.2344 1.77734 11.5898 2.13281C11.9453 2.48828 12.1891 2.87565 12.3213 3.29492C12.4535 3.71419 12.5332 4.16536 12.5605 4.64844C12.5788 5.05859 12.5902 5.47103 12.5947 5.88574C12.5993 6.30046 12.6016 6.71289 12.6016 7.12305Z" fill="black"/>
</g>
<defs>
<clipPath id="clip0_3_3286">
<rect width="12.02" height="14" fill="white" transform="matrix(1 0 0 -1 0.589844 14)"/>
</clipPath>
</defs>
</svg>
