<svg width="15" height="15" viewBox="0 0 14 15" fill="none" xmlns="http://www.w3.org/2000/svg">
<path d="M13.3739 14.149C13.2519 14.149 13.1372 14.1016 13.0514 14.0155L10.4686 11.4311L10.2601 11.5951C9.19273 12.4355 7.8604 12.8984 6.50873 12.8984C4.88345 12.8991 3.35768 12.2674 2.20968 11.1195C1.06089 9.97185 0.428559 8.4461 0.4292 6.82322C0.428559 5.20035 1.06089 3.67474 2.20951 2.52707C3.35672 1.37875 4.88072 0.746582 6.50039 0.746582C8.12998 0.746582 9.65398 1.37874 10.8015 2.52674C11.9502 3.67474 12.582 5.20018 12.5814 6.82322C12.582 8.17699 12.1191 9.50963 11.2782 10.5768L11.1138 10.785L13.6967 13.3696C13.7833 13.4563 13.8308 13.5711 13.8308 13.693C13.8308 13.8146 13.7833 13.9293 13.697 14.0152C13.6108 14.1016 13.4959 14.149 13.3738 14.149H13.3739ZM6.50506 1.65954C5.12586 1.66082 3.82986 2.19794 2.85529 3.17202C1.88009 4.14818 1.34314 5.4445 1.34217 6.82322C1.34312 8.20179 1.88009 9.49858 2.85529 10.4736C3.8305 11.448 5.12665 11.9845 6.50586 11.9851C7.88473 11.9845 9.18121 11.448 10.1559 10.4739C11.1303 9.49954 11.6671 8.20338 11.6684 6.82353C11.6671 5.44418 11.1303 4.14769 10.1563 3.17233C9.18106 2.19793 7.88475 1.66082 6.50554 1.65954H6.50506Z" fill="white"/>
</svg>
