<svg width="26" height="27" viewBox="0 0 26 27" fill="none" xmlns="http://www.w3.org/2000/svg">
<g clip-path="url(#clip0_4679_14425)">
<path d="M1.03418 13.3492C1.03359 15.4661 1.58672 17.5331 2.63848 19.355L0.933594 25.5798L7.30391 23.9095C9.06586 24.8686 11.04 25.3712 13.0461 25.3714H13.0514C19.6739 25.3714 25.0648 19.9824 25.0677 13.3587C25.0689 10.149 23.8201 7.13086 21.5512 4.86016C19.2826 2.58965 16.2655 1.33858 13.0509 1.33711C6.42754 1.33711 1.03701 6.72578 1.03428 13.3492" fill="url(#paint0_linear_4679_14425)"/>
<path d="M0.604492 13.3453C0.603809 15.5384 1.17676 17.6793 2.26602 19.5664L0.5 26.0144L7.09873 24.2842C8.91689 25.2755 10.964 25.7981 13.047 25.7989H13.0523C19.9125 25.7989 25.4971 20.2161 25.5 13.3553C25.5012 10.0303 24.2074 6.90361 21.8574 4.55156C19.5071 2.1998 16.3821 0.903711 13.0523 0.902344C6.19101 0.902344 0.607227 6.48438 0.604492 13.3453ZM4.53428 19.2414L4.28789 18.8503C3.25215 17.2034 2.70547 15.3003 2.70625 13.3461C2.7084 7.64346 7.34941 3.00391 13.0563 3.00391C15.8199 3.00508 18.4172 4.08242 20.3707 6.03711C22.3241 7.99199 23.399 10.5906 23.3983 13.3545C23.3958 19.0571 18.7547 23.6973 13.0523 23.6973H13.0482C11.1915 23.6963 9.37051 23.1977 7.78242 22.2554L7.40449 22.0313L3.48867 23.0579L4.53428 19.2414Z" fill="url(#paint1_linear_4679_14425)"/>
<path d="M9.94043 8.14336C9.70742 7.62549 9.46221 7.61504 9.24062 7.60596C9.05918 7.59815 8.85176 7.59873 8.64453 7.59873C8.43711 7.59873 8.1001 7.67676 7.81523 7.9878C7.53008 8.29913 6.72656 9.05147 6.72656 10.5816C6.72656 12.1118 7.84111 13.5907 7.99648 13.7984C8.15205 14.0058 10.1481 17.2464 13.3095 18.4931C15.9368 19.5291 16.4715 19.323 17.0417 19.2711C17.612 19.2193 18.8819 18.5189 19.141 17.7927C19.4003 17.0665 19.4003 16.444 19.3226 16.314C19.2448 16.1844 19.0374 16.1065 18.7264 15.9511C18.4153 15.7956 16.8861 15.0431 16.6011 14.9393C16.3159 14.8356 16.1086 14.7838 15.9012 15.0952C15.6937 15.4062 15.0981 16.1065 14.9166 16.314C14.7353 16.5219 14.5537 16.5478 14.2428 16.3922C13.9315 16.2361 12.9299 15.9081 11.7415 14.8486C10.8169 14.0242 10.1927 13.0062 10.0112 12.6947C9.82978 12.3838 9.9918 12.2152 10.1478 12.0603C10.2875 11.9209 10.4589 11.6971 10.6146 11.5155C10.7696 11.3339 10.8214 11.2043 10.9251 10.9969C11.0289 10.7893 10.977 10.6076 10.8993 10.4521C10.8214 10.2965 10.217 8.7583 9.94043 8.14336Z" fill="white"/>
</g>
<defs>
<linearGradient id="paint0_linear_4679_14425" x1="1207.64" y1="2425.6" x2="1207.64" y2="1.33711" gradientUnits="userSpaceOnUse">
<stop stop-color="#1FAF38"/>
<stop offset="1" stop-color="#60D669"/>
</linearGradient>
<linearGradient id="paint1_linear_4679_14425" x1="1250.5" y1="2512.1" x2="1250.5" y2="0.902344" gradientUnits="userSpaceOnUse">
<stop stop-color="#F9F9F9"/>
<stop offset="1" stop-color="white"/>
</linearGradient>
<clipPath id="clip0_4679_14425">
<rect width="25" height="25.1953" fill="white" transform="translate(0.5 0.902344)"/>
</clipPath>
</defs>
</svg>
