<svg width="15" height="14" viewBox="0 0 15 14" fill="none" xmlns="http://www.w3.org/2000/svg">
<g clip-path="url(#clip0_3_3297)">
<path d="M10.614 7.12305C10.614 6.93164 10.541 6.79036 10.3952 6.69922L6.38936 4.19727C6.22529 4.09701 6.05667 4.09245 5.8835 4.18359C5.71032 4.27474 5.62373 4.42057 5.62373 4.62109V9.625C5.62373 9.82552 5.71032 9.97135 5.8835 10.0625C5.96553 10.099 6.043 10.1172 6.11592 10.1172C6.22529 10.1172 6.31644 10.0944 6.38936 10.0488L10.3952 7.54688C10.541 7.46484 10.614 7.32357 10.614 7.12305ZM14.6198 7.12305C14.6198 7.62435 14.6153 8.01628 14.6062 8.29883C14.597 8.58138 14.5788 8.93685 14.5515 9.36523C14.5241 9.79362 14.4649 10.1764 14.3737 10.5137C14.2826 10.8965 14.1049 11.2201 13.8405 11.4844C13.5671 11.7396 13.239 11.8854 12.8562 11.9219C11.7077 12.0586 9.96227 12.127 7.61982 12.127C5.27738 12.127 3.53193 12.0586 2.3835 11.9219C2.0098 11.8854 1.68167 11.7396 1.39912 11.4844C1.12568 11.2201 0.943392 10.8965 0.852246 10.5137C0.788444 10.1764 0.733757 9.79362 0.688184 9.36523C0.642611 8.93685 0.624382 8.58138 0.633496 8.29883C0.642611 8.01628 0.638053 7.62435 0.619824 7.12305C0.601595 6.62174 0.606152 6.22982 0.633496 5.94727C0.66084 5.66471 0.679069 5.30924 0.688184 4.88086C0.697298 4.45247 0.756543 4.06966 0.865918 3.73242C0.957064 3.34961 1.1348 3.0306 1.39912 2.77539C1.67256 2.51107 2.00068 2.36068 2.3835 2.32422C3.53193 2.19661 5.27738 2.13281 7.61982 2.13281C9.96227 2.13281 11.7077 2.19661 12.8562 2.32422C13.2299 2.36068 13.558 2.51107 13.8405 2.77539C14.114 3.0306 14.2963 3.34961 14.3874 3.73242C14.4603 4.06966 14.515 4.45247 14.5515 4.88086C14.5879 5.30924 14.6062 5.66471 14.6062 5.94727C14.6062 6.22982 14.6107 6.62174 14.6198 7.12305Z" fill="black"/>
</g>
<defs>
<clipPath id="clip0_3_3297">
<rect width="14" height="14" fill="white" transform="matrix(1 0 0 -1 0.619629 14)"/>
</clipPath>
</defs>
</svg>
